<?xml version="1.0" encoding="utf-8"?>
<!-- Generator: Adobe Illustrator 22.1.0, SVG Export Plug-In . SVG Version: 6.00 Build 0)  -->
<svg version="1.1" id="Layer_1" xmlns="http://www.w3.org/2000/svg" xmlns:xlink="http://www.w3.org/1999/xlink" x="0px" y="0px"
	 viewBox="0 0 1920 1920" style="enable-background:new 0 0 1920 1920;" xml:space="preserve">
<style type="text/css">
	.st0{fill:#0073FF;}
</style>
<g>
	<g>
		<g>
			<path class="st0" d="M806.4,874.5v33.7h-90.8v36.7h83.5v33.9h-83.5v70.7H672v-175H806.4z"/>
			<path class="st0" d="M842,874.2h37.7v29.7H842V874.2z M842,919.9h37.7v129.7H842V919.9z"/>
			<path class="st0" d="M906.7,920.1h40.2c15.9,57.5,18.6,69.3,22.8,94c5.2-28.8,5.9-32,13.7-62.5l7.9-31.7h39.2l-41.9,129.4h-39.9
				L906.7,920.1z"/>
			<path class="st0" d="M1175,1016.5c-4.4,7.1-9.6,13.6-15.6,19.4c-13.4,12.1-30.8,18.7-48.8,18.4c-38.5,0-65.5-24.7-65.5-67
				c0-31.2,15.4-71.4,66.5-71.4c17.4-0.5,34.3,6.2,46.6,18.6c16.9,18.1,17.9,43.4,18.4,58h-92.4c-0.2,16.1,8.9,32.2,29.7,32.2
				c20.8,0,28-13.7,32.7-22.8L1175,1016.5z M1137.1,968.7c-0.3-6.7-2.8-13.2-7.2-18.4c-5.1-4.7-11.7-7.3-18.6-7.2
				c-7.3,0-14.4,3-19.4,8.4c-4.1,4.9-6.8,10.8-7.7,17.1H1137.1z"/>
			<path class="st0" d="M1214.3,882.7h38v40.4h25v23.3H1252v58.2c0,7.9,0,14.8,9.9,14.8l13.7-0.5v29.7c-6.6,1.2-13.4,1.9-20.1,2
				c-13.2,0-27.5-0.7-35.7-12.7c-5.2-7.7-5.4-16.9-5.4-29.2v-62.6h-18.9v-23.4h18.9L1214.3,882.7z"/>
			<path class="st0" d="M1345.9,933.5c8.4-7.2,17.6-12.9,37.4-14.8v33.9l-12.6,2c-18.4,3.2-23.8,5.9-23.8,22.3v72.7h-38V919.9h37.2
				L1345.9,933.5z"/>
			<path class="st0" d="M1411,956.8c-0.2-11.2,4.9-21.8,13.7-28.8c11.9-9.4,27.3-11.4,42.4-11.4c15.9,0,54.4,3.7,54.4,37.2v75.4
				c0,13.9,0.7,15.9,3.7,20.3h-37.4v-11.9c-9.9,7.2-20.6,15.4-39.6,15.4c-29.7,0-42.4-21.3-42.4-39.6c0-20.8,16.6-32.7,27.3-37.2
				c10.6-4.5,34.9-8.9,51.1-11.9v-6.9c-0.5-5.9-1-15.9-14.8-15.9c-16.9,0-19.1,10.4-20.1,15.1L1411,956.8z M1459.3,995.7
				c-6.4,2.5-16.4,6.2-16.4,16.1c0.4,7.6,6.9,13.5,14.5,13.1c4.7-0.1,9.3-1.6,13.2-4.2c12.6-7.9,13.1-19.8,13.4-33.2L1459.3,995.7z"
				/>
			<path class="st0" d="M1603.3,931.7c3.5-4.3,7.9-7.8,12.9-10.1c7.5-3.1,15.5-4.8,23.6-4.9c8-0.2,15.9,1.6,23.1,5.2
				c13.7,7.2,17.1,18.9,17.1,38.9v88.7h-37.9v-72.9c0-11.6-0.2-15.9-1.7-19.4c-3.1-6.5-9.9-10.5-17.1-9.9
				c-20.1,0-20.1,16.1-20.1,32.2v69.9h-38.1V920.4h38.5L1603.3,931.7z"/>
		</g>
		<g>
			<path class="st0" d="M439.1,960.6h40.2c3.2,0.1,5.9-2.5,5.9-5.7c0-0.8-0.1-1.6-0.5-2.4l-69.2-188.4c-0.8-2.3-3-3.8-5.5-3.8h-40.4
				c-3.2,0-5.8,2.6-5.8,5.8c0,0.7,0.1,1.4,0.4,2l69.2,188.7C434.4,959.1,436.6,960.7,439.1,960.6z"/>
			<path class="st0" d="M431.9,1160.9h40.2c3.2,0,5.8-2.6,5.8-5.8c0-0.7-0.1-1.4-0.4-2l-142.8-389c-0.8-2.3-3-3.8-5.5-3.8h-40.2
				c-3.2,0-5.8,2.6-5.8,5.8c0,0.7,0.1,1.4,0.4,2l142.7,389C427.3,1159.4,429.4,1160.9,431.9,1160.9z"/>
			<path class="st0" d="M352.7,1160.9h40.2c3.2,0.1,5.9-2.3,6.1-5.5c0-0.8-0.1-1.6-0.4-2.3l-69.5-188.7c-0.8-2.3-3-3.8-5.5-3.8
				h-40.4c-3.2,0.1-5.7,2.8-5.7,6c0,0.7,0.1,1.3,0.4,1.9l69.2,188.7C348,1159.4,350.2,1160.9,352.7,1160.9z"/>
			<path class="st0" d="M444,768.2l32.4,88.3c0.8,2.3,3,3.8,5.5,3.8h40.2c3.2,0,5.8-2.6,5.8-5.8c0-0.7-0.1-1.4-0.4-2l-32.4-88.3
				c-0.8-2.3-3-3.8-5.5-3.8h-40.2c-3.2,0-5.8,2.6-5.9,5.8C443.6,766.8,443.7,767.5,444,768.2z"/>
			<path class="st0" d="M278.5,1160.9h40.2c3.2,0,5.8-2.6,5.8-5.8c0-0.7-0.1-1.4-0.4-2l-32.6-88.5c-0.8-2.3-3-3.8-5.5-3.8h-40.2
				c-3.2,0-5.8,2.6-5.9,5.8c0,0.7,0.1,1.4,0.4,2.1l32.4,88.5C273.7,1159.5,276,1161,278.5,1160.9z"/>
		</g>
	</g>
</g>
</svg>
